<svg width="61" height="60" viewBox="0 0 61 60" fill="none" xmlns="http://www.w3.org/2000/svg">
<path fill-rule="evenodd" clip-rule="evenodd" d="M58.6784 41.4805C60.2111 37.8408 61 33.9396 61 30.0001C61 26.0604 60.2111 22.1592 58.6784 18.5195C57.1455 14.8797 54.8989 11.5726 52.0668 8.7868C49.2346 6.00104 45.8723 3.79126 42.1719 2.28362C38.4715 0.775979 34.5053 0 30.4999 0C22.4108 0 14.6531 3.16071 8.93324 8.7868C3.21337 14.4129 0 22.0436 0 30.0001C0 37.9566 3.21337 45.5871 8.93324 51.2133C14.6531 56.8393 22.4108 60 30.4999 60C34.5053 60 38.4715 59.224 42.1719 57.7164C45.8723 56.2088 49.2346 53.999 52.0668 51.2133C54.8989 48.4275 57.1455 45.1203 58.6784 41.4805ZM50.3763 49.5512C55.6479 44.366 58.6095 37.3333 58.6095 30.0002C58.6095 22.6672 55.6479 15.6346 50.3763 10.4493C45.1046 5.26405 37.9547 2.35101 30.4994 2.35101C23.0442 2.35101 15.8943 5.26405 10.6226 10.4493C5.35096 15.6346 2.38938 22.6672 2.38938 30.0002C2.38938 37.3333 5.35096 44.366 10.6226 49.5512C15.8943 54.7365 23.0442 57.6495 30.4994 57.6495C37.9547 57.6495 45.1046 54.7365 50.3763 49.5512Z" fill="white"/>
<path fill-rule="evenodd" clip-rule="evenodd" d="M30.5006 3.79283C30.2735 3.79283 30.0908 3.97259 30.0908 4.19594V8.84572C30.0908 9.06905 30.2735 9.24883 30.5006 9.24883C30.7277 9.24883 30.9105 9.06905 30.9105 8.84572V4.19594C30.9105 3.97259 30.7277 3.79283 30.5006 3.79283ZM27.8195 3.95951C27.7923 3.95663 27.7644 3.95663 27.7362 3.95984C27.5103 3.98302 27.3475 4.18048 27.3711 4.4026L27.5777 6.34787C27.6012 6.57 27.802 6.73017 28.0278 6.70697C28.2537 6.68381 28.4165 6.48633 28.3929 6.2642L28.1865 4.31895C28.1658 4.12458 28.0096 3.97765 27.8195 3.95951ZM33.2005 3.96143C33.0104 3.97942 32.8541 4.12634 32.8332 4.32068L32.6254 6.26577C32.6016 6.48788 32.7644 6.68555 32.9901 6.7089C33.216 6.73227 33.4168 6.57225 33.4406 6.35015L33.6486 4.40489C33.6724 4.18277 33.5094 3.98528 33.2837 3.96193C33.2554 3.95906 33.2277 3.95905 33.2005 3.96143ZM25.0653 4.35235C25.0381 4.35256 25.0103 4.35521 24.9825 4.36097C24.7604 4.40722 24.6195 4.6204 24.6664 4.83888L25.6455 9.38776C25.6925 9.60624 25.9093 9.74491 26.1314 9.69866C26.3535 9.65241 26.4944 9.4394 26.4475 9.22092L25.4684 4.67187C25.4273 4.48069 25.2563 4.35088 25.0653 4.35235ZM35.9545 4.35619C35.7635 4.35427 35.5926 4.48445 35.5512 4.6756L34.5688 9.22394C34.5217 9.4424 34.6625 9.65563 34.8846 9.70204C35.1067 9.74849 35.3235 9.60991 35.3706 9.39148L36.353 4.84312C36.4003 4.62468 36.2593 4.41144 36.0373 4.36503C36.0096 4.35929 35.9818 4.35619 35.9545 4.35619ZM22.4369 5.08131C22.3839 5.07652 22.329 5.08228 22.275 5.0999C22.0591 5.16895 21.9416 5.39534 22.0118 5.60773L22.6264 7.46793C22.6966 7.68034 22.9269 7.79583 23.1428 7.72681C23.3588 7.65775 23.476 7.43119 23.4058 7.21879L22.7913 5.35861C22.7387 5.19931 22.5961 5.09463 22.4369 5.08131ZM38.5681 5.08228C38.4089 5.09558 38.2662 5.2003 38.2136 5.35959L37.5988 7.21961C37.5286 7.432 37.6459 7.65859 37.8619 7.72763C38.0777 7.79667 38.3081 7.68128 38.3783 7.46893L38.9931 5.60874C39.0633 5.39634 38.946 5.16975 38.7301 5.10072C38.6761 5.08348 38.6211 5.07788 38.5681 5.08228ZM19.8377 6.0169C19.7844 6.01785 19.7304 6.02935 19.6786 6.05204C19.4713 6.14273 19.3784 6.37999 19.4706 6.58407L21.3907 10.833C21.4829 11.0371 21.7241 11.1283 21.9316 11.0376C22.1389 10.9469 22.2319 10.7096 22.1397 10.5056L20.2195 6.25664C20.1504 6.10356 19.9974 6.01385 19.8377 6.0169ZM41.1967 6.03116C41.037 6.02828 40.8838 6.11744 40.8144 6.27038L38.8886 10.5167C38.7961 10.7207 38.8886 10.9581 39.096 11.0491C39.3033 11.1401 39.5446 11.0491 39.6371 10.8452L41.5631 6.59887C41.6556 6.39491 41.5631 6.15747 41.3557 6.06648C41.3039 6.04378 41.25 6.0323 41.1967 6.03116ZM17.425 7.27251C17.3464 7.26677 17.2652 7.284 17.1915 7.32594C16.9949 7.43761 16.928 7.68319 17.0415 7.87659L18.0357 9.57047C18.1493 9.76388 18.3989 9.82965 18.5957 9.71799C18.7923 9.60632 18.8591 9.36076 18.7456 9.16735L17.7513 7.47349C17.6803 7.3526 17.5562 7.28154 17.425 7.27251ZM43.5763 7.27251C43.4452 7.28113 43.321 7.35256 43.25 7.47346L42.2556 9.16731C42.1421 9.36073 42.2092 9.60629 42.4058 9.71795C42.6024 9.82962 42.8521 9.76384 42.9656 9.57044L43.9599 7.87657C44.0734 7.68315 44.0066 7.43758 43.81 7.32591C43.7361 7.28406 43.6549 7.26715 43.5763 7.27251ZM15.0822 8.70975C15.0034 8.71261 14.9244 8.73752 14.8555 8.78664C14.6718 8.91779 14.6311 9.16888 14.7644 9.34966L17.5402 13.1134C17.6735 13.2941 17.929 13.3341 18.1128 13.203C18.2965 13.0719 18.3372 12.8208 18.2038 12.64L15.4278 8.8763C15.3445 8.76331 15.2136 8.70533 15.0822 8.70975ZM45.9484 8.73025C45.817 8.72546 45.686 8.7834 45.6025 8.89622L42.8215 12.6563C42.6879 12.8369 42.7282 13.088 42.9119 13.2195C43.0955 13.3508 43.3508 13.3112 43.4844 13.1308L46.2653 9.37072C46.399 9.19011 46.3586 8.93892 46.175 8.80753C46.1061 8.75832 46.0272 8.73302 45.9484 8.73025ZM12.9882 10.4372C12.8835 10.4314 12.7768 10.4658 12.6924 10.5405C12.5237 10.6899 12.5101 10.9438 12.662 11.1098L13.9925 12.5635C14.1444 12.7296 14.4025 12.7429 14.5712 12.5934C14.7401 12.444 14.7536 12.1899 14.6017 12.024L13.2714 10.5704C13.1954 10.4873 13.0927 10.4426 12.9882 10.4372ZM48.0161 10.44C47.9114 10.4458 47.8089 10.4903 47.7329 10.5733L46.4025 12.0267C46.2505 12.1927 46.2639 12.4467 46.4326 12.5961C46.6015 12.7456 46.8596 12.7322 47.0115 12.5663L48.3421 11.1129C48.494 10.9469 48.4805 10.6928 48.3118 10.5434C48.2274 10.4687 48.1207 10.4346 48.0161 10.44ZM10.9811 12.3334C10.8765 12.3392 10.7741 12.3837 10.6981 12.4667C10.5462 12.6327 10.5598 12.8866 10.7285 13.036L14.2419 16.1469C14.4106 16.2963 14.6687 16.283 14.8206 16.1171C14.9725 15.951 14.9591 15.6971 14.7903 15.5477L11.2768 12.4368C11.1923 12.3622 11.0858 12.328 10.9811 12.3334ZM50.0328 12.347C49.9283 12.3413 49.8214 12.3755 49.737 12.4502L46.2215 15.5587C46.0526 15.708 46.0387 15.9618 46.1905 16.128C46.3423 16.2941 46.6006 16.3076 46.7694 16.1583L50.2851 13.0497C50.454 12.9004 50.4677 12.6466 50.3159 12.4805C50.2399 12.3974 50.1375 12.3526 50.0328 12.347ZM9.31207 14.4443C9.18069 14.4396 9.0497 14.4978 8.96629 14.6107C8.83283 14.7914 8.87331 15.0425 9.05704 15.1737L10.6657 16.3234C10.8494 16.4546 11.1047 16.415 11.2381 16.2343C11.3716 16.0536 11.3312 15.8023 11.1476 15.6711L9.53884 14.5214C9.47001 14.4722 9.39089 14.4471 9.31207 14.4443ZM51.7003 14.459C51.6215 14.4619 51.5425 14.4867 51.4736 14.5359L49.8641 15.6846C49.6804 15.8157 49.6397 16.0669 49.773 16.2478C49.9064 16.4285 50.1617 16.4682 50.3454 16.3371L51.955 15.1886C52.1388 15.0574 52.1793 14.8063 52.0459 14.6256C51.9625 14.5126 51.8317 14.4545 51.7003 14.459ZM7.75237 16.6961C7.62122 16.7047 7.49716 16.7761 7.4262 16.897C7.31268 17.0904 7.37957 17.336 7.5762 17.4476L11.6701 19.7725C11.8667 19.8842 12.1163 19.8183 12.2299 19.6249C12.3434 19.4315 12.2766 19.186 12.08 19.0743L7.98601 16.7494C7.91231 16.7076 7.83106 16.6908 7.75237 16.6961ZM53.2489 16.6961C53.1702 16.6903 53.089 16.7076 53.0152 16.7495L48.9214 19.0744C48.7248 19.186 48.6578 19.4317 48.7713 19.6251C48.8849 19.8185 49.1345 19.8842 49.3311 19.7725L53.4252 17.4476C53.6218 17.3361 53.6888 17.0904 53.5753 16.897C53.5043 16.7762 53.38 16.7051 53.2489 16.6961ZM6.57309 19.0961C6.41339 19.0923 6.26022 19.1822 6.19086 19.3352C6.09836 19.5391 6.1908 19.7765 6.39817 19.8675L8.21436 20.6643C8.42173 20.7554 8.66313 20.6644 8.75562 20.4605C8.84812 20.2565 8.7555 20.019 8.54814 19.9281L6.73212 19.1312C6.68033 19.1085 6.62632 19.0972 6.57309 19.0961ZM54.4361 19.1127C54.3828 19.1137 54.3287 19.1251 54.2769 19.1479L52.4603 19.9432C52.253 20.0342 52.1601 20.2714 52.2526 20.4755C52.3449 20.6795 52.5864 20.7707 52.7937 20.6799L54.6103 19.8842C54.8177 19.7935 54.9103 19.556 54.818 19.3521C54.7487 19.1991 54.5958 19.1096 54.4361 19.1127ZM5.52209 21.6046C5.36291 21.6177 5.22021 21.7223 5.16747 21.8816C5.09716 22.0939 5.21417 22.3205 5.4301 22.3897L9.9248 23.8303C10.1407 23.8994 10.3711 23.7842 10.4415 23.5719C10.5118 23.3596 10.3947 23.133 10.1788 23.0638L5.68412 21.6232C5.63018 21.6058 5.57514 21.6003 5.52209 21.6046ZM55.4851 21.6218C55.4321 21.617 55.3774 21.6228 55.3233 21.6404L50.8276 23.0778C50.6117 23.1468 50.4944 23.3735 50.5646 23.5859C50.6348 23.7982 50.8651 23.9136 51.081 23.8445L55.5767 22.4071C55.7925 22.3381 55.9101 22.1116 55.8399 21.8992C55.7871 21.7398 55.6443 21.6351 55.4851 21.6218ZM4.8673 24.2378C4.67636 24.2359 4.50512 24.3662 4.46381 24.5574C4.41659 24.7759 4.55749 24.9891 4.77955 25.0355L6.72469 25.442C6.94679 25.4885 7.16354 25.35 7.21074 25.1315C7.25797 24.913 7.1171 24.6998 6.89505 24.6534L4.95008 24.2469C4.92232 24.2411 4.89455 24.2378 4.8673 24.2378ZM56.1349 24.2416C56.1076 24.2419 56.0801 24.2454 56.0523 24.2502L54.1072 24.6567C53.885 24.7031 53.7442 24.9161 53.7915 25.1346C53.8386 25.353 54.0554 25.4917 54.2775 25.4453L56.2224 25.0388C56.4445 24.9925 56.5856 24.7793 56.5383 24.5608C56.4971 24.3697 56.3259 24.24 56.1349 24.2416ZM4.37167 26.8865C4.18161 26.9043 4.02517 27.051 4.00428 27.2453C3.98043 27.4675 4.14287 27.6653 4.36866 27.6886L9.06976 28.1776C9.29555 28.201 9.4966 28.0411 9.52045 27.8189C9.5443 27.5969 9.3817 27.3991 9.1559 27.3758L4.4548 26.8868C4.42658 26.8839 4.39883 26.8839 4.37167 26.8865ZM56.634 26.9212C56.6069 26.9183 56.5788 26.9183 56.5507 26.9215L51.849 27.4041C51.6233 27.4274 51.4604 27.6249 51.4839 27.8469C51.5076 28.0691 51.7082 28.2292 51.9341 28.206L56.6357 27.7235C56.8615 27.7002 57.0243 27.5028 57.0008 27.2807C56.9801 27.0863 56.8241 26.9393 56.634 26.9212ZM4.29207 29.5977C4.065 29.5977 3.88226 29.7775 3.88226 30.0009C3.88226 30.2242 4.065 30.4039 4.29207 30.4039H6.28056C6.50761 30.4039 6.69056 30.2242 6.69056 30.0009C6.69056 29.7775 6.50761 29.5977 6.28056 29.5977H4.29207ZM54.7207 29.5977C54.4937 29.5977 54.3109 29.7775 54.3109 30.0009C54.3109 30.2242 54.4937 30.4039 54.7207 30.4039H56.7092C56.9363 30.4039 57.1191 30.2242 57.1191 30.0009C57.1191 29.7775 56.9363 29.5977 56.7092 29.5977H54.7207ZM9.15042 31.7953C9.12326 31.7924 9.0955 31.7924 9.06726 31.7956L4.36545 32.2782C4.13963 32.3013 3.97685 32.4988 4.00039 32.721C4.02396 32.9432 4.2247 33.1033 4.45053 33.0801L9.15236 32.5974C9.37818 32.5743 9.54096 32.3768 9.51742 32.1547C9.49678 31.9603 9.34047 31.8134 9.15042 31.7953ZM51.8483 31.8238C51.6583 31.8417 51.5018 31.9885 51.481 32.1828C51.4571 32.4048 51.6195 32.6026 51.8454 32.6261L56.5465 33.1149C56.7722 33.1384 56.9733 32.9784 56.9972 32.7564C57.0209 32.5342 56.8584 32.3365 56.6325 32.3131L51.9317 31.8241C51.9035 31.8213 51.8754 31.8213 51.8483 31.8238ZM6.80676 34.5472C6.7795 34.5473 6.75176 34.5499 6.72402 34.5557L4.77886 34.9621C4.55676 35.0085 4.41596 35.2218 4.46312 35.4402C4.51035 35.6587 4.72711 35.7972 4.94921 35.7507L6.89436 35.3445C7.11645 35.2981 7.25724 35.0849 7.21006 34.8665C7.16879 34.6753 6.99769 34.5456 6.80676 34.5472ZM54.194 34.551C54.003 34.549 53.832 34.6792 53.7907 34.8703C53.7434 35.0888 53.8841 35.302 54.1062 35.3485L56.0514 35.7551C56.2735 35.8016 56.4903 35.6631 56.5374 35.4447C56.5846 35.2262 56.4437 35.0128 56.2217 34.9664L54.2767 34.5598C54.249 34.554 54.2212 34.551 54.194 34.551ZM10.0822 36.1387C10.0292 36.1338 9.97436 36.1396 9.92037 36.1572L5.42463 37.5947C5.2087 37.6637 5.09142 37.8903 5.1616 38.1027C5.23181 38.3151 5.46215 38.4305 5.67808 38.3614L10.1737 36.9239C10.3896 36.8549 10.507 36.6284 10.4369 36.416C10.3842 36.2566 10.2414 36.1521 10.0822 36.1387ZM50.9146 36.153C50.7554 36.166 50.6128 36.2706 50.56 36.4299C50.4897 36.6422 50.6067 36.8689 50.8227 36.9381L55.3174 38.3787C55.5332 38.4478 55.7636 38.3327 55.834 38.1203C55.9044 37.908 55.7873 37.6813 55.5713 37.6121L51.0766 36.1716C51.0226 36.1542 50.9678 36.1486 50.9146 36.153ZM8.36666 39.287C8.31341 39.288 8.25949 39.2993 8.20765 39.322L6.39092 40.1176C6.1835 40.2083 6.09091 40.4458 6.18325 40.6498C6.27565 40.8539 6.51692 40.9448 6.72434 40.854L8.54106 40.0586C8.74848 39.9678 8.84107 39.7304 8.74873 39.5263C8.6795 39.3733 8.52638 39.2838 8.36666 39.287ZM52.628 39.3023C52.4683 39.2985 52.3151 39.3884 52.2457 39.5414C52.1533 39.7453 52.2457 39.9828 52.4531 40.0738L54.2692 40.8706C54.4765 40.9616 54.718 40.8706 54.8104 40.6667C54.9029 40.4627 54.8104 40.2253 54.6031 40.1343L52.787 39.3374C52.7352 39.3147 52.6813 39.3034 52.628 39.3023ZM11.9037 40.1758C11.8251 40.1702 11.7438 40.1873 11.6701 40.2293L7.5762 42.5542C7.37957 42.6659 7.31268 42.9114 7.4262 43.1048C7.53973 43.2982 7.78938 43.3641 7.98601 43.2524L12.08 40.9277C12.2766 40.816 12.3434 40.5703 12.2299 40.3769C12.1589 40.256 12.0349 40.1848 11.9037 40.1758ZM49.0977 40.1758C48.9666 40.1846 48.8423 40.256 48.7713 40.3769C48.6578 40.5703 48.7248 40.816 48.9214 40.9277L53.0152 43.2524C53.2118 43.364 53.4617 43.2982 53.5753 43.1048C53.6888 42.9114 53.6218 42.6659 53.4252 42.5542L49.3311 40.2293C49.2575 40.1875 49.1764 40.1706 49.0977 40.1758ZM10.8826 43.5876C10.8037 43.5905 10.7248 43.6155 10.6558 43.6647L9.04641 44.8134C8.86263 44.9445 8.82197 45.1955 8.95527 45.3763C9.08862 45.5571 9.34389 45.5971 9.52767 45.4659L11.1373 44.3173C11.3211 44.1862 11.3617 43.9351 11.2284 43.7542C11.145 43.6413 11.014 43.5831 10.8826 43.5876ZM50.1089 43.6012C49.9775 43.5965 49.8465 43.6547 49.7632 43.7675C49.6296 43.9483 49.6702 44.1995 49.8539 44.3307L51.4626 45.4804C51.6463 45.6117 51.9015 45.5718 52.035 45.3911C52.1684 45.2105 52.128 44.9594 51.9444 44.8282L50.3357 43.6784C50.2669 43.6292 50.1878 43.604 50.1089 43.6012ZM14.5278 43.7404C14.4231 43.7347 14.3164 43.769 14.232 43.8436L10.7163 46.9521C10.5475 47.1014 10.5338 47.3553 10.6856 47.5214C10.8373 47.6874 11.0955 47.7009 11.2643 47.5516L14.7799 44.4431C14.9488 44.2938 14.9625 44.0399 14.8107 43.8738C14.7349 43.7908 14.6323 43.7459 14.5278 43.7404ZM46.4638 43.7516C46.3592 43.7573 46.2566 43.8017 46.1806 43.8848C46.0287 44.0507 46.0424 44.3046 46.2111 44.454L49.7244 47.5649C49.8931 47.7144 50.1513 47.701 50.3032 47.5351C50.4552 47.3692 50.4416 47.1153 50.2729 46.9659L46.7593 43.8549C46.6749 43.7802 46.5685 43.7462 46.4638 43.7516ZM17.863 46.7046C17.7316 46.6998 17.6005 46.7577 17.517 46.8707L14.7361 50.6307C14.6025 50.8113 14.6426 51.0625 14.8263 51.1939C15.0099 51.3252 15.2653 51.2856 15.3988 51.105L18.1797 47.345C18.3133 47.1644 18.2731 46.9132 18.0895 46.7818C18.0207 46.7326 17.9418 46.7074 17.863 46.7046ZM43.1154 46.7215C43.0366 46.7244 42.9577 46.7492 42.8887 46.7985C42.705 46.9296 42.6643 47.1806 42.7976 47.3614L45.5733 51.1251C45.7067 51.306 45.962 51.3458 46.1457 51.2147C46.3296 51.0836 46.3701 50.8326 46.2368 50.6518L43.4611 46.8881C43.3778 46.7751 43.2468 46.7171 43.1154 46.7215ZM14.273 47.3022C14.1683 47.308 14.0658 47.3525 13.9898 47.4356L12.6594 48.8889C12.5074 49.055 12.5209 49.309 12.6896 49.4584C12.8584 49.6079 13.1165 49.5944 13.2683 49.4284L14.599 47.975C14.751 47.809 14.7374 47.555 14.5687 47.4056C14.4843 47.3309 14.3777 47.2968 14.273 47.3022ZM46.7258 47.3042C46.6212 47.2984 46.5145 47.3329 46.4302 47.4074C46.2614 47.5569 46.2478 47.8107 46.3998 47.9768L47.7301 49.4306C47.8819 49.5965 48.14 49.6098 48.3088 49.4604C48.4775 49.311 48.4911 49.057 48.3392 48.891L47.0088 47.4374C46.9329 47.3544 46.8305 47.3096 46.7258 47.3042ZM21.7463 48.9166C21.5866 48.9128 21.4336 49.0027 21.3642 49.1557L19.4383 53.4019C19.3458 53.6059 19.4383 53.8434 19.6456 53.9343C19.853 54.0253 20.0943 53.9343 20.1868 53.7305L22.1129 49.4842C22.2054 49.2802 22.1129 49.0427 21.9055 48.9517C21.8537 48.9289 21.7996 48.9177 21.7463 48.9166ZM39.229 48.9282C39.1757 48.9293 39.1216 48.9405 39.0698 48.9632C38.8624 49.0539 38.7695 49.2912 38.8618 49.4952L40.7817 53.7442C40.8739 53.9482 41.1153 54.0396 41.3228 53.9489C41.5302 53.8582 41.6231 53.6208 41.5309 53.4167L39.6108 49.1679C39.5417 49.0148 39.3887 48.9252 39.229 48.9282ZM18.362 50.2295C18.2309 50.2381 18.1067 50.3095 18.0357 50.4304L17.0415 52.1243C16.928 52.3177 16.9949 52.5633 17.1915 52.6749C17.3881 52.7866 17.6378 52.7207 17.7513 52.5273L18.7456 50.8335C18.8591 50.6401 18.7923 50.3945 18.5957 50.2828C18.5218 50.241 18.4406 50.2241 18.362 50.2295ZM42.6393 50.2295C42.5607 50.2237 42.4796 50.2411 42.4058 50.283C42.2092 50.3945 42.1424 50.6402 42.2559 50.8336L43.25 52.5275C43.3636 52.7209 43.6133 52.7866 43.81 52.6749C44.0066 52.5633 44.0734 52.3177 43.9599 52.1243L42.9656 50.4304C42.8946 50.3096 42.7705 50.2385 42.6393 50.2295ZM26.0341 50.2902C25.8431 50.2883 25.6721 50.4184 25.6308 50.6096L24.6485 55.158C24.6012 55.3765 24.742 55.5897 24.9641 55.636C25.1863 55.6825 25.403 55.5439 25.4503 55.3255L26.4326 50.7772C26.4798 50.5588 26.3389 50.3456 26.1169 50.2991C26.0891 50.2934 26.0613 50.2902 26.0341 50.2902ZM34.9526 50.2931C34.9254 50.2933 34.8979 50.2959 34.8701 50.3017C34.648 50.3479 34.507 50.561 34.554 50.7795L35.5331 55.3284C35.5801 55.5469 35.7968 55.6856 36.019 55.6394C36.2411 55.5931 36.382 55.3799 36.335 55.1614L35.3558 50.6127C35.3146 50.4216 35.1435 50.2917 34.9526 50.2931ZM30.5006 50.7519C30.2735 50.7519 30.0908 50.9317 30.0908 51.1549V55.8047C30.0908 56.0281 30.2735 56.2079 30.5006 56.2079C30.7277 56.2079 30.9105 56.0281 30.9105 55.8047V51.1549C30.9105 50.9317 30.7277 50.7519 30.5006 50.7519ZM22.9776 52.2543C22.8184 52.2677 22.6756 52.3724 22.623 52.5317L22.0083 54.3919C21.9381 54.6042 22.0554 54.8309 22.2714 54.8999C22.4872 54.9689 22.7177 54.8533 22.7878 54.641L23.4024 52.7809C23.4726 52.5685 23.3553 52.342 23.1395 52.273C23.0855 52.2557 23.0306 52.25 22.9776 52.2543ZM38.0205 52.2553C37.9673 52.2505 37.9126 52.2563 37.8586 52.2737C37.6427 52.3428 37.5252 52.5695 37.5954 52.7819L38.2099 54.6419C38.2801 54.8544 38.5105 54.9697 38.7265 54.9007C38.9423 54.8316 39.0597 54.6052 38.9897 54.3928L38.375 52.5326C38.3222 52.3734 38.1797 52.2685 38.0205 52.2553ZM27.9281 53.2913C27.7381 53.3094 27.5814 53.4561 27.5608 53.6504L27.3529 55.5957C27.3291 55.8178 27.4918 56.0153 27.7177 56.0387C27.9434 56.062 28.1443 55.902 28.1681 55.68L28.376 53.7349C28.3997 53.5127 28.2371 53.3151 28.0112 53.2917C27.983 53.2888 27.9552 53.2888 27.9281 53.2913ZM33.0567 53.2933C33.0296 53.2904 33.0016 53.2904 32.9734 53.2936C32.7475 53.3168 32.5847 53.5143 32.6083 53.7363L32.8149 55.6818C32.8385 55.9039 33.0393 56.064 33.265 56.0408C33.4909 56.0175 33.6537 55.82 33.6301 55.598L33.4237 53.6528C33.4031 53.4583 33.2468 53.3114 33.0567 53.2933Z" fill="white"/>
<path fill-rule="evenodd" clip-rule="evenodd" d="M33.7145 33.3103L10.9154 48.3958L27.2875 26.6901L50.0868 11.6044L33.7145 33.3103Z" fill="white"/>
</svg>
