<svg width="61" height="60" viewBox="0 0 61 60" fill="none" xmlns="http://www.w3.org/2000/svg">
<path fill-rule="evenodd" clip-rule="evenodd" d="M30.5 0C47.3447 0 61 13.4315 61 30C61 46.5685 47.3447 60 30.5 60C13.6553 60 0 46.5685 0 30C0 13.4315 13.6553 0 30.5 0ZM38.6258 26.198C38.4775 25.0126 38.1071 24.0818 37.4493 23.2574C36.5951 22.1958 35.5035 21.5601 33.8874 21.183C32.8342 20.9317 32.4087 20.9605 32.0278 21.3028C31.673 21.6234 31.6037 22.2662 31.8748 22.6825C32.0655 22.9846 32.2855 23.0928 32.8973 23.2109C33.7121 23.3584 34.2751 23.5497 34.7873 23.8378C35.8744 24.4552 36.3807 25.4214 36.4349 26.9856C36.4602 27.72 36.5247 27.9458 36.7855 28.2063C37.2689 28.6824 38.1291 28.5898 38.494 28.02C38.6279 27.8053 38.6483 27.7118 38.6625 27.2131C38.6718 26.9043 38.6583 26.4448 38.6258 26.198ZM38.6403 18.9252C41.2249 20.981 42.6691 23.9029 42.8838 27.5346C42.9741 28.965 42.8541 29.4309 42.3411 29.6962C41.8781 29.9421 41.3536 29.8612 40.9937 29.491C40.7553 29.2502 40.6638 28.9209 40.6672 28.3378C40.6777 26.7256 40.3001 24.9252 39.6861 23.6759C38.9755 22.2219 37.8771 20.9845 36.4953 20.0799C35.2849 19.2853 33.683 18.7486 32.1299 18.615C31.1225 18.5283 30.7628 18.3604 30.5694 17.8854C30.4496 17.6012 30.4812 17.11 30.6217 16.8899C30.7545 16.6871 31.0524 16.4627 31.2631 16.4034C31.4864 16.3393 32.7876 16.4513 33.4944 16.5895C35.4239 16.9757 37.1841 17.7701 38.6403 18.9252ZM47.5956 41.5204C47.5233 41.3128 47.3548 40.9926 47.2344 40.8088C46.4759 39.6822 42.4008 36.5453 40.3661 35.5194C39.2044 34.9324 38.3436 34.7367 37.7055 34.9205C37.0193 35.1103 36.6581 35.4245 35.5083 36.8299C35.0449 37.3933 34.5693 37.921 34.4429 38.004C34.1299 38.2175 33.5159 38.3895 33.0825 38.3895C32.0772 38.3835 30.2533 37.7431 28.8507 36.901C27.7612 36.2488 26.3647 35.0807 25.2932 33.9243C24.029 32.5664 23.1684 31.3686 22.4881 30.0166C21.6093 28.2791 21.3865 27.2177 21.7537 26.4408C21.844 26.2452 21.9644 26.0377 22.0185 25.9724C22.0727 25.9132 22.6386 25.4565 23.2646 24.9584C24.4926 23.9978 24.6912 23.7784 24.92 23.1202C25.2089 22.284 25.1307 21.4301 24.6852 20.5704C24.3421 19.918 23.4452 18.4949 22.7951 17.5758C21.9343 16.3662 19.7913 13.7808 19.3639 13.4308C18.5934 12.8141 17.6063 12.7073 16.5166 13.1225C15.367 13.5613 13.212 15.2691 12.2909 16.461C11.4602 17.5402 11.1413 18.3051 11.0931 19.3132C11.051 20.1434 11.1232 20.4873 11.5687 21.5488C15.054 29.8742 20.2548 36.5216 27.4001 41.7992C31.1321 44.5565 35.0027 46.6557 39.0177 48.0907C41.3593 48.9268 42.3766 48.9683 43.5745 48.2805C44.0801 47.9839 45.3322 46.7209 46.0304 45.8018C47.1862 44.2718 47.6136 43.5662 47.734 43.0029C47.8183 42.6175 47.7521 41.9474 47.5956 41.5204ZM46.0564 22.7507C46.7897 24.6293 47.1413 26.3144 47.2184 28.3687C47.2307 28.7745 47.225 29.518 47.1983 30.0217C47.1426 30.9872 47.0893 31.179 46.8067 31.4345C46.3525 31.8537 45.4671 31.7538 45.1314 31.2486C44.956 30.9776 44.9314 30.779 44.9653 29.6509C45.0627 26.3141 44.3766 23.7014 42.7238 21.0889C40.7487 17.9546 37.7943 15.8432 33.9526 14.8102C32.9729 14.5473 32.1472 14.387 30.8632 14.217C30.0268 14.1093 29.8436 14.0638 29.6371 13.9388C29.0135 13.5459 29.0052 12.5511 29.6269 12.1522C29.9477 11.9417 30.1843 11.9323 31.2299 12.064C34.2962 12.4409 37.0323 13.3371 39.2806 14.6913C40.892 15.6633 41.9081 16.5365 43.2162 18.0658C44.5999 19.6968 45.3325 20.9027 46.0564 22.7507Z" fill="white"/>
</svg>
