<svg width="60" height="60" viewBox="0 0 60 60" fill="none" xmlns="http://www.w3.org/2000/svg">
<path fill-rule="evenodd" clip-rule="evenodd" d="M30 60C13.4315 60 0 46.5685 0 30C0 13.4315 13.4315 0 30 0C46.5685 0 60 13.4315 60 30C60 46.5685 46.5685 60 30 60ZM45.08 33.397C45.3114 32.3546 45.4318 31.2751 45.4318 30.166C45.4318 21.8567 38.6002 15.1184 30.1693 15.1184C29.2813 15.1184 28.4102 15.1945 27.5597 15.3391C26.1957 14.4915 24.5814 14 22.8523 14C17.9624 14 14 17.9061 14 22.7285C14 24.3384 14.444 25.8444 15.2154 27.1428C15.0141 28.1184 14.9069 29.1311 14.9069 30.166C14.9069 38.479 21.7404 45.2154 30.1693 45.2154C31.1251 45.2154 32.0583 45.1283 32.9652 44.9632C34.2126 45.6235 35.635 46 37.1496 46C42.0376 46 46 42.092 46 37.2734C46 35.8805 45.6689 34.5655 45.08 33.397Z" fill="white"/>
<path fill-rule="evenodd" clip-rule="evenodd" d="M38.8055 36.8382C38.0168 37.6451 36.8517 38.2821 35.3375 38.7341C33.8423 39.1831 32.0505 39.4121 30.0084 39.4121C27.5584 39.4121 25.5037 39.1012 23.8991 38.4869C22.7529 38.041 21.8086 37.4373 21.0915 36.6881C20.3659 35.9358 20 35.188 20 34.4645C20 34.0156 20.2397 33.6243 20.7108 33.3042C21.1777 32.9857 21.7771 32.8265 22.4921 32.8265C23.0768 32.8265 23.5836 32.9523 23.9937 33.2026C24.387 33.4438 24.7234 33.8002 24.9947 34.2567C25.2976 34.7573 25.6257 35.1789 25.9727 35.508C26.3091 35.8296 26.7907 36.0981 27.4048 36.3089C28.0231 36.5182 28.858 36.6274 29.8822 36.6274C31.2934 36.6274 32.4501 36.409 33.3186 35.9813C34.1703 35.5642 34.5825 35.0606 34.5825 34.4448C34.5825 33.961 34.3659 33.5788 33.9243 33.2784C33.4574 32.966 32.8454 32.7233 32.103 32.5534C31.327 32.3805 30.2755 32.191 28.9737 31.9938C27.2008 31.7208 25.6972 31.3977 24.5026 31.0291C23.2787 30.6545 22.2923 30.1343 21.571 29.4836C20.8391 28.8208 20.4669 27.9911 20.4669 27.0159C20.4669 26.0876 20.8559 25.2489 21.6257 24.5269C22.387 23.8095 23.5016 23.2483 24.938 22.8676C26.3533 22.4899 28.0358 22.2988 29.9432 22.2988C31.4658 22.2988 32.8055 22.4262 33.9243 22.678C35.0494 22.9298 35.9958 23.2695 36.7403 23.6897C37.4911 24.1144 38.0505 24.5648 38.3996 25.035C38.7529 25.5097 38.9338 25.9815 38.9338 26.438C38.9338 26.8778 38.6982 27.2783 38.2334 27.6256C37.7666 27.9775 37.1756 28.1549 36.4816 28.1549C35.8507 28.1549 35.3544 28.0427 35.0137 27.8243C34.694 27.6195 34.3617 27.301 33.9937 26.846C33.5689 26.2636 33.0536 25.804 32.4627 25.4794C31.8885 25.1639 30.9317 25.0062 29.613 25.0062C28.3933 25.0062 27.3964 25.1821 26.6583 25.5325C25.9474 25.8677 25.6004 26.2545 25.6004 26.7125C25.6004 26.9916 25.7119 27.2267 25.9432 27.4269C26.183 27.6423 26.5258 27.8273 26.959 27.9851C27.4069 28.1473 27.8696 28.2778 28.3323 28.3688C28.8055 28.4643 29.6004 28.6054 30.6919 28.7874C32.0736 28.9997 33.3417 29.2409 34.4627 29.5003C35.6004 29.7611 36.5804 30.0827 37.3838 30.4604C38.1998 30.8441 38.8454 31.3355 39.306 31.924C39.7666 32.517 40 33.2451 40 34.0929C40 35.1061 39.5962 36.0298 38.8055 36.8382Z" fill="white"/>
</svg>
