<svg width="66" height="57" viewBox="0 0 66 57" fill="none" xmlns="http://www.w3.org/2000/svg">
<ellipse cx="33" cy="28.5" rx="33" ry="28.5" fill="#FFEFEF"/>
<path d="M27.8107 27.9899C29.1397 30.707 31.3422 32.8995 34.0653 34.2162C34.2645 34.3106 34.4849 34.3515 34.7048 34.3348C34.9246 34.3182 35.1363 34.2446 35.3191 34.1213L39.3287 31.4476C39.5061 31.3293 39.7101 31.2572 39.9223 31.2377C40.1346 31.2182 40.3483 31.252 40.5443 31.3359L48.0455 34.5507C48.3003 34.659 48.5131 34.8471 48.6517 35.0868C48.7903 35.3264 48.8472 35.6047 48.814 35.8795C48.5769 37.7348 47.6717 39.44 46.2679 40.6759C44.864 41.9118 43.0578 42.5936 41.1875 42.5937C35.4108 42.5937 29.8706 40.2989 25.7858 36.2142C21.7011 32.1294 19.4062 26.5892 19.4062 20.8125C19.4063 18.9421 20.0882 17.136 21.3241 15.7321C22.56 14.3283 24.2652 13.4231 26.1205 13.186C26.3953 13.1527 26.6735 13.2097 26.9132 13.3483C27.1529 13.4869 27.341 13.6997 27.4492 13.9545L30.6669 21.4623C30.7501 21.6565 30.784 21.8682 30.7656 22.0787C30.7472 22.2892 30.677 22.4918 30.5613 22.6686L27.8969 26.7397C27.7756 26.9229 27.7039 27.1343 27.6888 27.3535C27.6737 27.5726 27.7157 27.7919 27.8107 27.9899V27.9899Z" stroke="#2C0C75" stroke-linecap="round" stroke-linejoin="round"/>
</svg>
