<svg width="61" height="61" viewBox="0 0 61 61" fill="none" xmlns="http://www.w3.org/2000/svg">
<circle cx="30.5" cy="30.5" r="30.5" fill="white"/>
<path d="M23.5785 34.375H40.2035C40.8334 34.375 41.4375 34.1247 41.8829 33.6793C42.3283 33.2339 42.5785 32.6299 42.5785 32C42.5785 31.3701 42.3283 30.766 41.8829 30.3206C41.4375 29.8752 40.8334 29.625 40.2035 29.625H18.8285C16.2697 29.625 14.1953 31.7516 14.1953 34.375C14.1953 36.9984 16.2697 39.125 18.8285 39.125H40.4995C42.3892 39.125 44.2015 38.3743 45.5376 37.0381C46.8738 35.7019 47.6245 33.8897 47.6245 32C47.6245 30.1103 46.8738 28.2981 45.5376 26.9619C44.2015 25.6257 42.3892 24.875 40.4995 24.875H23.8745" stroke="#290C75" stroke-linecap="round" stroke-linejoin="round"/>
</svg>
