<svg width="61" height="60" viewBox="0 0 61 60" fill="none" xmlns="http://www.w3.org/2000/svg">
<path fill-rule="evenodd" clip-rule="evenodd" d="M0 30C0 13.4315 13.6553 0 30.5 0C47.3447 0 61 13.4315 61 30C61 46.5685 47.3447 60 30.5 60C13.6553 60 0 46.5685 0 30Z" fill="white"/>
<path fill-rule="evenodd" clip-rule="evenodd" d="M32.1184 39.9248C32.1184 39.9248 32.7139 39.8615 33.019 39.5482C33.2982 39.2612 33.2885 38.7195 33.2885 38.7195C33.2885 38.7195 33.2514 36.1903 34.4797 35.8168C35.6902 35.4496 37.2445 38.2628 38.8941 39.3445C40.1401 40.1624 41.0859 39.9834 41.0859 39.9834L45.4938 39.9248C45.4938 39.9248 47.7987 39.789 46.706 38.056C46.6156 37.914 46.0684 36.7736 43.4295 34.4311C40.6647 31.979 41.0359 32.3755 44.364 28.1334C46.3912 25.5501 47.2015 23.973 46.9481 23.2986C46.7076 22.6535 45.2162 22.8248 45.2162 22.8248L40.2547 22.8542C40.2547 22.8542 39.8867 22.8063 39.6139 22.9622C39.3476 23.1149 39.1749 23.4714 39.1749 23.4714C39.1749 23.4714 38.3905 25.4698 37.343 27.1704C35.1334 30.7568 34.2505 30.9466 33.889 30.7243C33.0481 30.2043 33.2579 28.638 33.2579 27.5253C33.2579 24.0486 33.8099 22.5995 32.1845 22.2245C31.6455 22.0995 31.2484 22.0177 29.8684 22.0039C28.0978 21.9869 26.6 22.01 25.751 22.4066C25.1861 22.6705 24.7503 23.26 25.0166 23.294C25.3443 23.3356 26.0867 23.4853 26.4806 23.9976C26.989 24.6597 26.9712 26.1442 26.9712 26.1442C26.9712 26.1442 27.2634 30.2367 26.2885 30.7444C25.6203 31.0932 24.7035 30.3818 22.7328 27.1272C21.724 25.4606 20.9622 23.618 20.9622 23.618C20.9622 23.618 20.8153 23.2739 20.5522 23.0887C20.2343 22.865 19.7904 22.7955 19.7904 22.7955L15.0758 22.8248C15.0758 22.8248 14.3673 22.8433 14.1074 23.1381C13.8766 23.3989 14.0896 23.9405 14.0896 23.9405C14.0896 23.9405 17.7809 32.1981 21.9613 36.36C25.7946 40.1748 30.146 39.9248 30.146 39.9248H32.1184Z" fill="#290C75"/>
</svg>
