<svg width="60" height="60" viewBox="0 0 60 60" fill="none" xmlns="http://www.w3.org/2000/svg">
<path fill-rule="evenodd" clip-rule="evenodd" d="M0 30C0 13.4315 13.4315 0 30 0C46.5685 0 60 13.4315 60 30C60 46.5685 46.5685 60 30 60C13.4315 60 0 46.5685 0 30ZM45.3313 22.5915C44.9633 21.1778 43.8789 20.0645 42.502 19.6867C40.0067 19 30 19 30 19C30 19 19.9933 19 17.4978 19.6867C16.1209 20.0645 15.0365 21.1778 14.6685 22.5915C14 25.1538 14 30.5 14 30.5C14 30.5 14 35.846 14.6685 38.4085C15.0365 39.8222 16.1209 40.9355 17.4978 41.3135C19.9933 42 30 42 30 42C30 42 40.0067 42 42.502 41.3135C43.8789 40.9355 44.9633 39.8222 45.3313 38.4085C46 35.846 46 30.5 46 30.5C46 30.5 46 25.1538 45.3313 22.5915Z" fill="white"/>
<path fill-rule="evenodd" clip-rule="evenodd" d="M27 36V26L35 31.0002L27 36Z" fill="white"/>
</svg>
