<svg width="61" height="60" viewBox="0 0 61 60" fill="none" xmlns="http://www.w3.org/2000/svg">
<path fill-rule="evenodd" clip-rule="evenodd" d="M0 30C0 13.4315 13.6553 0 30.5 0C47.3447 0 61 13.4315 61 30C61 46.5685 47.3447 60 30.5 60C13.6553 60 0 46.5685 0 30ZM30.5015 14C26.0837 14 25.5293 14.019 23.7942 14.0967C22.0624 14.1747 20.8804 14.4443 19.8461 14.84C18.7762 15.2487 17.8686 15.7954 16.9645 16.685C16.0596 17.5744 15.5038 18.467 15.087 19.5191C14.6837 20.5367 14.4092 21.6997 14.3313 23.4024C14.2537 25.1091 14.2333 25.6548 14.2333 30.0002C14.2333 34.3455 14.253 34.8892 14.3316 36.5959C14.4113 38.2993 14.6854 39.4619 15.0873 40.4793C15.5032 41.5316 16.0589 42.4243 16.9635 43.3136C17.8673 44.2036 18.7748 44.7517 19.844 45.1603C20.879 45.556 22.0614 45.8257 23.7928 45.9037C25.5279 45.9813 26.082 46.0003 30.4995 46.0003C34.9176 46.0003 35.4704 45.9813 37.2055 45.9037C38.9372 45.8257 40.1206 45.556 41.1556 45.1603C42.2252 44.7517 43.1314 44.2036 44.0352 43.3136C44.94 42.4243 45.4958 41.5316 45.9127 40.4796C46.3126 39.4619 46.5871 38.2989 46.6684 36.5962C46.7463 34.8896 46.7667 34.3455 46.7667 30.0002C46.7667 25.6548 46.7463 25.1094 46.6684 23.4028C46.5871 21.6994 46.3126 20.5367 45.9127 19.5194C45.4958 18.467 44.94 17.5744 44.0352 16.685C43.1303 15.795 42.2255 15.2483 41.1546 14.84C40.1176 14.4443 38.9349 14.1747 37.2031 14.0967C35.468 14.019 34.9156 14 30.4964 14H30.5015Z" fill="white"/>
<path fill-rule="evenodd" clip-rule="evenodd" d="M29.0423 16.8834C29.4754 16.8827 29.9586 16.8834 30.5015 16.8834C34.8448 16.8834 35.3595 16.8987 37.0747 16.9754C38.6607 17.0467 39.5215 17.3074 40.0949 17.5264C40.854 17.8164 41.3952 18.163 41.9642 18.723C42.5336 19.2831 42.886 19.8164 43.1815 20.5631C43.4042 21.1264 43.6695 21.9731 43.7417 23.5331C43.8197 25.2198 43.8366 25.7265 43.8366 29.9965C43.8366 34.2665 43.8197 34.7732 43.7417 36.4599C43.6692 38.0199 43.4042 38.8666 43.1815 39.4299C42.8867 40.1766 42.5336 40.7083 41.9642 41.2679C41.3949 41.828 40.8544 42.1746 40.0949 42.4646C39.5222 42.6846 38.6607 42.9446 37.0747 43.016C35.3599 43.0926 34.8448 43.1093 30.5015 43.1093C26.1579 43.1093 25.6432 43.0926 23.9284 43.016C22.3424 42.944 21.4816 42.6833 20.9078 42.4643C20.1487 42.1743 19.6065 41.8276 19.0371 41.2676C18.4678 40.7076 18.1153 40.1756 17.8198 39.4286C17.5972 38.8653 17.3318 38.0186 17.2596 36.4586C17.1817 34.7719 17.1661 34.2652 17.1661 29.9925C17.1661 25.7198 17.1817 25.2158 17.2596 23.5291C17.3322 21.9691 17.5972 21.1224 17.8198 20.5584C18.1147 19.8117 18.4678 19.2784 19.0371 18.7184C19.6065 18.1584 20.1487 17.8117 20.9078 17.521C21.4812 17.301 22.3424 17.041 23.9284 16.9694C25.429 16.9027 26.0105 16.8827 29.0423 16.8794V16.8834ZM39.1846 19.5401C38.1069 19.5401 37.2326 20.3991 37.2326 21.4594C37.2326 22.5194 38.1069 23.3794 39.1846 23.3794C40.2623 23.3794 41.1366 22.5194 41.1366 21.4594C41.1366 20.3994 40.2623 19.5401 39.1846 19.5401ZM30.5015 21.7834C25.8882 21.7834 22.1478 25.4625 22.1478 30.0002C22.1478 34.5379 25.8882 38.2153 30.5015 38.2153C35.1149 38.2153 38.8539 34.5379 38.8539 30.0002C38.8539 25.4625 35.1149 21.7834 30.5015 21.7834Z" fill="white"/>
<path fill-rule="evenodd" clip-rule="evenodd" d="M30.5015 24.6668C33.496 24.6668 35.9238 27.0545 35.9238 30.0002C35.9238 32.9455 33.496 35.3336 30.5015 35.3336C27.5067 35.3336 25.0792 32.9455 25.0792 30.0002C25.0792 27.0545 27.5067 24.6668 30.5015 24.6668Z" fill="white"/>
</svg>
