<svg width="61" height="60" viewBox="0 0 61 60" fill="none" xmlns="http://www.w3.org/2000/svg">
<path fill-rule="evenodd" clip-rule="evenodd" d="M0 30C0 13.4315 13.6553 0 30.5 0C47.3447 0 61 13.4315 61 30C61 46.5685 47.3447 60 30.5 60C13.6553 60 0 46.5685 0 30ZM42.4089 45.5258C45.2657 45.5258 47.5412 43.717 48.8 39.3831L46.67 38.5742C45.6048 41.4778 44.6847 42.0029 43.9587 42.0029C43.2322 42.0029 42.8445 41.5272 42.8445 40.5751C42.8445 40.1466 42.942 39.6714 43.0867 39.0988L44.6364 33.625C45.0237 32.3396 45.1689 31.2016 45.1689 30.1544C45.1689 26.0589 42.651 23.9261 39.6008 23.9261C36.7444 23.9261 33.8392 26.4697 32.387 29.137L33.4518 24.3681H25.1725L24.0105 28.597H27.8839L25.4989 37.9679C23.6255 42.0635 20.1848 42.1077 19.7531 42.0125C19.0441 41.8553 18.5907 41.595 18.5907 40.6891C18.5907 40.166 18.6874 39.4242 18.9296 38.5187L22.5612 24.3681H13.362L12.2 28.597H16.0247L13.5555 38.4891C13.362 39.2987 13.2649 40.1432 13.2649 40.8563C13.2649 43.6666 14.8142 45.5214 18.1066 45.5214C20.8375 45.5214 23.0512 43.9048 24.6449 41.3294L23.6716 45.1283H29.0942L32.1931 32.9457C32.9676 29.8499 34.4685 28.2866 36.7444 28.2866C38.5359 28.2866 39.6495 29.3824 39.6495 31.1915C39.6495 31.7157 39.6008 32.2866 39.4073 32.9059L37.8093 38.5254C37.5672 39.335 37.4708 40.1453 37.4708 40.9065C37.4708 43.5744 39.0681 45.5258 42.4089 45.5258ZM20.3822 15C18.5907 15 17.09 16.3809 17.09 18.19C17.09 20.0003 18.5907 21.3815 20.3822 21.3815C22.1739 21.3815 23.6746 20.0003 23.6746 18.19C23.6746 16.3809 22.1739 15 20.3822 15Z" fill="white"/>
</svg>
