<svg width="61" height="60" viewBox="0 0 61 60" fill="none" xmlns="http://www.w3.org/2000/svg">
<path fill-rule="evenodd" clip-rule="evenodd" d="M61 30C61 46.5685 47.3446 60 30.5 60C13.6554 60 0 46.5685 0 30C0 13.4315 13.6554 0 30.5 0C47.3446 0 61 13.4315 61 30ZM20.4242 27.2519C17.3689 28.564 14.2296 29.9123 11.359 31.4675C9.8601 32.547 11.8523 33.3106 13.7213 34.0269C14.0184 34.1408 14.3124 34.2534 14.5888 34.3659C14.8188 34.4355 15.0526 34.5088 15.2897 34.583C17.3684 35.2344 19.6861 35.9608 21.7042 34.8681C25.0193 32.995 28.1477 30.8295 31.2738 28.6656C32.298 27.9566 33.3219 27.2479 34.352 26.5496C34.4003 26.5193 34.4547 26.4845 34.5143 26.4466C35.3918 25.887 37.3656 24.6286 36.6355 26.3626C34.9092 28.2196 33.06 29.8634 31.2009 31.5163C29.9478 32.6301 28.6902 33.7481 27.4626 34.9381C26.3934 35.7926 25.2831 37.511 26.4804 38.7076C29.2379 40.6064 32.0386 42.4591 34.8376 44.3109C35.7484 44.9134 36.6592 45.5159 37.5681 46.1199C39.1086 47.3296 41.5162 46.351 41.8549 44.4606C42.0055 43.591 42.1567 42.7215 42.3079 41.8519C43.1437 37.046 43.9796 32.2384 44.7181 27.4169C44.8185 26.6605 44.9322 25.9042 45.0461 25.1476C45.322 23.3137 45.5983 21.4776 45.6846 19.6339C45.4622 17.7939 43.194 18.1985 41.9318 18.6122C35.4439 21.0405 29.0209 23.6488 22.6232 26.303C21.8985 26.6187 21.1638 26.9342 20.4242 27.2519Z" fill="white"/>
</svg>
