<svg width="43" height="48" viewBox="0 0 43 48" fill="none" xmlns="http://www.w3.org/2000/svg">
<path fill-rule="evenodd" clip-rule="evenodd" d="M11.4706 37.3231C12.4211 37.8246 13.4797 38.0864 14.5543 38.086C18.1338 38.086 21.0559 35.2387 21.1878 31.69L21.201 0H29.1076C29.1083 0.673085 29.1709 1.34468 29.2945 2.00632H23.5053V2.00742H31.4129C31.4118 4.65963 32.3731 7.22216 34.1185 9.21918L34.1207 9.22173C35.9011 10.3848 37.9821 11.0032 40.1088 11.0012V12.7622C40.8531 12.9216 41.6227 13.0065 42.4142 13.0065V20.9152C38.4667 20.9198 34.6179 19.6821 31.413 17.3775V33.4468C31.413 41.4709 24.8839 48 16.8586 48C14.8601 48.0005 12.883 47.5882 11.0512 46.7889C9.2207 45.9903 7.5749 44.8224 6.21653 43.3584L6.21355 43.3563C2.46035 40.7212 0 36.3633 0 31.4404C0 23.4151 6.52906 16.885 14.5543 16.885C15.2106 16.8881 15.8658 16.9359 16.5156 17.0279V18.9001C16.5613 18.8992 16.6067 18.8976 16.6523 18.8961C16.7207 18.8937 16.7893 18.8913 16.8586 18.8913C17.5148 18.8944 18.1701 18.9422 18.8198 19.0342V27.1068C18.1998 26.9122 17.5435 26.7989 16.8586 26.7989C15.0962 26.801 13.4066 27.5021 12.1605 28.7484C10.9144 29.9947 10.2136 31.6844 10.2119 33.4467C10.212 34.8387 10.6519 36.1951 11.4689 37.3222L11.4706 37.3231ZM3.26428 38.6397C3.93975 40.3996 4.9478 41.9961 6.21034 43.3529C4.9221 41.9743 3.92735 40.371 3.26428 38.6397Z" fill="white"/>
</svg>
